<svg width="44" height="44" viewBox="0 0 44 44" fill="none" xmlns="http://www.w3.org/2000/svg">
<path d="M21.9999 0C16.776 0.000222103 11.7226 1.90627 7.74393 5.37711C3.76526 8.84794 1.12095 13.6571 0.284151 18.944C-0.552652 24.2309 0.472656 29.6506 3.17662 34.2333C5.88058 38.8161 10.0867 42.2628 15.0425 43.9568C16.1425 44.1542 16.555 43.4776 16.555 42.8854C16.555 42.3497 16.5275 40.5734 16.5275 38.6843C11 39.7275 9.56999 37.3028 9.13 36.034C8.64177 34.8 7.86781 33.7064 6.87501 32.8478C6.10502 32.4249 5.00502 31.3816 6.84749 31.3535C7.55102 31.4318 8.22577 31.6828 8.81459 32.0852C9.4034 32.4877 9.88891 33.0297 10.23 33.6654C10.5309 34.2197 10.9355 34.7075 11.4206 35.1012C11.9057 35.4948 12.4618 35.7864 13.057 35.9592C13.6523 36.1321 14.2749 36.1829 14.8893 36.1086C15.5037 36.0343 16.0977 35.8364 16.6374 35.5264C16.7326 34.3796 17.2311 33.3075 18.0399 32.5095C13.145 31.9456 8.03 30 8.03 21.3723C7.99909 19.1305 8.80591 16.9615 10.285 15.3102C9.61241 13.3619 9.69111 11.2237 10.505 9.33279C10.505 9.33279 12.3474 8.74066 16.5549 11.6448C20.1548 10.6297 23.9551 10.6297 27.5549 11.6448C31.7623 8.71249 33.6048 9.33279 33.6048 9.33279C34.4188 11.2236 34.4975 13.3619 33.8248 15.3102C35.3084 16.9587 36.1159 19.1296 36.0798 21.3723C36.0798 30.0282 30.9373 31.9456 26.0424 32.5095C26.5674 33.0551 26.9718 33.7102 27.228 34.4302C27.4842 35.1502 27.5863 35.9184 27.5274 36.6825C27.5274 39.6994 27.4998 42.1242 27.4998 42.8855C27.4998 43.4776 27.9123 44.1825 29.0123 43.9569C33.9594 42.2491 38.1534 38.7943 40.8459 34.2092C43.5383 29.6241 44.5539 24.2072 43.7113 18.9254C42.8687 13.6436 40.2228 8.8407 36.2458 5.37409C32.2689 1.90749 27.2198 0.00278551 21.9999 0Z" fill="white"/>
</svg>
