<svg width="38" height="38" viewBox="0 0 38 38" fill="none" xmlns="http://www.w3.org/2000/svg">
<path d="M18.9999 -0.000244141C14.4884 -5.23247e-05 10.1241 1.64608 6.68794 4.64362C3.25182 7.64116 0.968097 11.7945 0.245403 16.3605C-0.477291 20.9264 0.408203 25.6071 2.74344 29.5649C5.07868 33.5227 8.71128 36.4995 12.9912 37.9625C13.9412 38.133 14.2975 37.5486 14.2975 37.0371C14.2975 36.5745 14.2737 35.0404 14.2737 33.4089C9.49998 34.3099 8.26499 32.2158 7.885 31.12C7.46334 30.0543 6.79493 29.1098 5.93751 28.3683C5.27251 28.003 4.32252 27.1021 5.91374 27.0778C6.52133 27.1454 7.10408 27.3621 7.6126 27.7097C8.12112 28.0573 8.54042 28.5254 8.83499 29.0745C9.09485 29.5531 9.44428 29.9745 9.86324 30.3144C10.2822 30.6543 10.7625 30.9062 11.2765 31.0555C11.7906 31.2048 12.3283 31.2486 12.8589 31.1844C13.3895 31.1203 13.9026 30.9494 14.3687 30.6816C14.4509 29.6913 14.8814 28.7653 15.5799 28.0762C11.3525 27.5891 6.935 25.9089 6.935 18.4576C6.9083 16.5216 7.6051 14.6484 8.88249 13.2222C8.30163 11.5395 8.36959 9.69292 9.07249 8.05989C9.07249 8.05989 10.6637 7.54851 14.2975 10.0566C17.4064 9.17997 20.6885 9.17997 23.7974 10.0566C27.4311 7.52418 29.0223 8.05989 29.0223 8.05989C29.7253 9.69289 29.7933 11.5396 29.2123 13.2222C30.4936 14.6459 31.191 16.5207 31.1598 18.4576C31.1598 25.9332 26.7186 27.5891 22.4911 28.0762C22.9446 28.5474 23.2938 29.1131 23.5151 29.7349C23.7364 30.3568 23.8246 31.0202 23.7736 31.6801C23.7736 34.2856 23.7499 36.3797 23.7499 37.0372C23.7499 37.5486 24.1061 38.1573 25.0561 37.9625C29.3285 36.4876 32.9507 33.5039 35.276 29.5441C37.6013 25.5842 38.4784 20.906 37.7507 16.3444C37.023 11.7829 34.7378 7.63491 31.3032 4.64102C27.8686 1.64713 23.508 0.00216153 18.9999 -0.000244141Z" fill="#191C1B"/>
</svg>
