<svg width="46" height="46" viewBox="0 0 46 46" fill="none" xmlns="http://www.w3.org/2000/svg">
<g clip-path="url(#clip0_122_1239)">
<path d="M23 0C10.2973 0 0 10.2973 0 23C0 35.7026 10.2973 45.9999 23 45.9999C35.7026 45.9999 46 35.7026 46 23C45.9999 10.2973 35.7024 0 23 0ZM16.8635 34.1194H11.8136V17.8047H16.8635V34.1194ZM14.3145 15.6681C12.6653 15.6681 11.3283 14.3202 11.3283 12.6578C11.3283 10.9952 12.6655 9.64737 14.3145 9.64737C15.9636 9.64737 17.3006 10.9952 17.3006 12.6578C17.3007 14.3203 15.9637 15.6681 14.3145 15.6681ZM35.7879 34.1194H30.7625V25.5555C30.7625 23.2067 29.8703 21.8956 28.0131 21.8956C25.9917 21.8956 24.9357 23.2611 24.9357 25.5555V34.1194H20.0923V17.8047H24.9357V20.002C24.9357 20.002 26.3926 17.307 29.852 17.307C33.3115 17.307 35.788 19.4194 35.788 23.7891L35.7879 34.1194Z" fill="#005AC1"/>
</g>
<defs>
<clipPath id="clip0_122_1239">
<rect width="46" height="46" fill="white"/>
</clipPath>
</defs>
</svg>
