<svg width="38" height="38" viewBox="0 0 38 38" fill="none" xmlns="http://www.w3.org/2000/svg">
<rect width="38" height="38" rx="19" fill="#005AC1"/>
<path d="M16.9434 19.9336C17.3728 20.5077 17.9207 20.9827 18.5499 21.3265C19.1791 21.6703 19.8749 21.8747 20.59 21.9259C21.3052 21.9771 22.0229 21.8739 22.6947 21.6233C23.3665 21.3728 23.9765 20.9806 24.4834 20.4736L27.4834 17.4736C28.3942 16.5305 28.8981 15.2675 28.8867 13.9566C28.8753 12.6456 28.3495 11.3915 27.4225 10.4645C26.4954 9.53743 25.2413 9.01158 23.9304 9.00019C22.6194 8.9888 21.3564 9.49277 20.4134 10.4036L18.6934 12.1136" stroke="white" stroke-width="2" stroke-linecap="round" stroke-linejoin="round"/>
<path d="M20.9436 17.9336C20.5141 17.3594 19.9662 16.8844 19.337 16.5406C18.7078 16.1969 18.0121 15.9925 17.2969 15.9412C16.5818 15.89 15.864 15.9932 15.1922 16.2438C14.5205 16.4944 13.9104 16.8865 13.4036 17.3936L10.4036 20.3936C9.49277 21.3366 8.9888 22.5996 9.00019 23.9106C9.01158 25.2216 9.53743 26.4756 10.4645 27.4027C11.3915 28.3297 12.6456 28.8556 13.9566 28.8669C15.2675 28.8783 16.5305 28.3744 17.4736 27.4636L19.1836 25.7536" stroke="white" stroke-width="2" stroke-linecap="round" stroke-linejoin="round"/>
</svg>
