<svg width="38" height="38" viewBox="0 0 38 38" fill="none" xmlns="http://www.w3.org/2000/svg">
<g clip-path="url(#clip0_122_670)">
<path d="M19 -0.00012207C8.5065 -0.00012207 0 8.50638 0 18.9998C0 29.4933 8.5065 37.9998 19 37.9998C29.4934 37.9998 38 29.4933 38 18.9998C37.9999 8.50638 29.4933 -0.00012207 19 -0.00012207ZM13.9307 28.1854H9.7591V14.7081H13.9307V28.1854ZM11.825 12.9431C10.4626 12.9431 9.35815 11.8296 9.35815 10.4563C9.35815 9.08285 10.4628 7.96944 11.825 7.96944C13.1873 7.96944 14.2918 9.08285 14.2918 10.4563C14.2918 11.8297 13.1874 12.9431 11.825 12.9431ZM29.5639 28.1854H25.4125V21.111C25.4125 19.1706 24.6755 18.0875 23.1412 18.0875C21.4714 18.0875 20.5991 19.2156 20.5991 21.111V28.1854H16.598V14.7081H20.5991V16.5233C20.5991 16.5233 21.8026 14.297 24.6604 14.297C27.5182 14.297 29.564 16.042 29.564 19.6518L29.5639 28.1854Z" fill="#191C1B"/>
</g>
<defs>
<clipPath id="clip0_122_670">
<rect width="38" height="38" fill="white" transform="translate(0 -0.000244141)"/>
</clipPath>
</defs>
</svg>
