<svg width="44" height="44" viewBox="0 0 44 44" fill="none" xmlns="http://www.w3.org/2000/svg">
<path d="M37.972 29.3918C38.94 28.5998 39.6 27.3238 39.6 25.9598C39.6 23.5398 37.62 21.5598 35.2 21.5598C32.78 21.5598 30.8 23.5398 30.8 25.9598C30.8 27.3238 31.46 28.5998 32.428 29.3918C31.02 30.2718 30.052 31.7238 29.92 33.4838L22.88 28.1598V22.4398H26.4C26.884 22.4398 27.28 22.0438 27.28 21.5598V15.3998C27.28 13.5078 26.268 11.8358 24.772 10.9118C25.74 10.1198 26.4 8.84383 26.4 7.47983C26.4 5.05983 24.42 3.07983 22 3.07983C19.58 3.07983 17.6 5.05983 17.6 7.47983C17.6 8.84383 18.26 10.1198 19.228 10.9118C17.732 11.8358 16.72 13.5078 16.72 15.3998V21.5598C16.72 22.0438 17.116 22.4398 17.6 22.4398H21.12V28.1598L14.08 33.4398C13.948 31.7238 12.98 30.2278 11.572 29.3478C12.54 28.5998 13.2 27.3238 13.2 25.9598C13.2 23.5398 11.22 21.5598 8.80002 21.5598C6.38002 21.5598 4.40002 23.5398 4.40002 25.9598C4.40002 27.3238 5.06002 28.5998 6.02802 29.3918C4.53202 30.3158 3.52002 31.9878 3.52002 33.8798V40.0398C3.52002 40.5238 3.91602 40.9198 4.40002 40.9198H13.2C13.684 40.9198 14.08 40.5238 14.08 40.0398V35.6398L22 29.6998L29.92 35.6398V40.0398C29.92 40.5238 30.316 40.9198 30.8 40.9198H39.6C40.084 40.9198 40.48 40.5238 40.48 40.0398V33.8798C40.48 31.9878 39.468 30.3158 37.972 29.3918ZM8.80002 23.3198C10.252 23.3198 11.44 24.5078 11.44 25.9598C11.44 27.4118 10.252 28.5998 8.80002 28.5998C7.34802 28.5998 6.16002 27.4118 6.16002 25.9598C6.16002 24.5078 7.34802 23.3198 8.80002 23.3198ZM12.32 39.1598H5.28002V33.8798C5.28002 31.9438 6.86402 30.3598 8.80002 30.3598C10.736 30.3598 12.32 31.9438 12.32 33.8798V39.1598ZM22 4.83983C23.452 4.83983 24.64 6.02783 24.64 7.47983C24.64 8.93183 23.452 10.1198 22 10.1198C20.548 10.1198 19.36 8.93183 19.36 7.47983C19.36 6.02783 20.548 4.83983 22 4.83983ZM18.48 20.6798V15.3998C18.48 13.4638 20.064 11.8798 22 11.8798C23.936 11.8798 25.52 13.4638 25.52 15.3998V20.6798H18.48ZM35.2 23.3198C36.652 23.3198 37.84 24.5078 37.84 25.9598C37.84 27.4118 36.652 28.5998 35.2 28.5998C33.748 28.5998 32.56 27.4118 32.56 25.9598C32.56 24.5078 33.748 23.3198 35.2 23.3198ZM38.72 39.1598H31.68V33.8798C31.68 31.9438 33.264 30.3598 35.2 30.3598C37.136 30.3598 38.72 31.9438 38.72 33.8798V39.1598Z" fill="black"/>
</svg>
