<svg width="407" height="102" viewBox="0 0 407 102" fill="none" xmlns="http://www.w3.org/2000/svg">
<path d="M58.2154 33H44.3083V38.9288H54.55V78.0713H44.3083V84H58.2154C59.4911 84 60.5265 82.9729 60.5265 81.7074V35.2926C60.5265 34.0271 59.4911 33 58.2154 33Z" fill="#00BFA5"/>
<path d="M2.31109 33H16.2181V38.9288H5.97647V78.0713H16.2181V84H2.31109C1.03535 84 0 82.9729 0 81.7074V78.0713V38.9288V35.2926C0 34.0271 1.03535 33 2.31109 33Z" fill="#4285F4"/>
<path d="M48.9611 43.3984H39.5073V73.5994H48.9611V43.3984Z" fill="#00BFA5"/>
<path d="M48.9612 73.6018H39.5074L25.5361 48.0215H34.99L48.9612 73.6018Z" fill="#1CE9B6"/>
<path d="M11.565 73.6018H21.0188L21.0188 43.4008H11.565L11.565 73.6018Z" fill="#4285F4"/>
<path d="M11.5649 73.6018H21.0188L34.9924 48.0215H25.5362L11.5649 73.6018Z" fill="#4FC3F7"/>
<path d="M107.895 37.8599H110.595L105.223 58H102.578L98.2467 44.7233H98.1342L93.8023 58H91.1583L85.5607 37.8599H88.261L92.5084 53.6963H92.6209L96.9809 40.5602H99.4L103.76 53.6963H103.872L107.895 37.8599ZM110.291 51.1085C110.291 48.9895 110.957 47.2361 112.288 45.8484C113.638 44.4607 115.335 43.7669 117.379 43.7669C119.423 43.7669 121.111 44.4607 122.443 45.8484C123.793 47.2361 124.468 48.9895 124.468 51.1085C124.468 53.2463 123.793 54.9996 122.443 56.3685C121.111 57.7562 119.423 58.4501 117.379 58.4501C115.335 58.4501 113.638 57.7562 112.288 56.3685C110.957 54.9809 110.291 53.2275 110.291 51.1085ZM112.879 51.1085C112.879 52.5899 113.31 53.7901 114.173 54.7089C115.035 55.6278 116.104 56.0873 117.379 56.0873C118.655 56.0873 119.723 55.6278 120.586 54.7089C121.449 53.7901 121.88 52.5899 121.88 51.1085C121.88 49.6458 121.449 48.455 120.586 47.5361C119.705 46.5985 118.636 46.1297 117.379 46.1297C116.123 46.1297 115.054 46.5985 114.173 47.5361C113.31 48.455 112.879 49.6458 112.879 51.1085ZM129.132 58H126.544V44.217H129.019V46.1297H129.132C129.526 45.4546 130.126 44.892 130.932 44.442C131.757 43.9919 132.573 43.7669 133.379 43.7669C134.392 43.7669 135.283 44.0013 136.051 44.4701C136.82 44.9389 137.383 45.5859 137.739 46.411C138.883 44.6483 140.468 43.7669 142.493 43.7669C144.087 43.7669 145.315 44.2545 146.178 45.2296C147.04 46.2047 147.472 47.5924 147.472 49.3926V58H144.884V49.7864C144.884 48.4925 144.649 47.5643 144.181 47.0017C143.712 46.4204 142.924 46.1297 141.818 46.1297C140.824 46.1297 139.989 46.5516 139.314 47.3955C138.639 48.2394 138.302 49.2332 138.302 50.3771V58H135.714V49.7864C135.714 48.4925 135.479 47.5643 135.011 47.0017C134.542 46.4204 133.754 46.1297 132.648 46.1297C131.654 46.1297 130.819 46.5516 130.144 47.3955C129.469 48.2394 129.132 49.2332 129.132 50.3771V58ZM156.685 58.4501C154.66 58.4501 152.991 57.7562 151.679 56.3685C150.366 54.9809 149.71 53.2275 149.71 51.1085C149.71 49.0082 150.347 47.2642 151.622 45.8766C152.897 44.4701 154.529 43.7669 156.517 43.7669C158.561 43.7669 160.183 44.4326 161.383 45.764C162.602 47.0767 163.211 48.9238 163.211 51.3054L163.183 51.5867H152.354C152.391 52.9368 152.841 54.0245 153.704 54.8496C154.566 55.6747 155.598 56.0873 156.798 56.0873C158.448 56.0873 159.742 55.2621 160.68 53.6119L162.986 54.7371C162.367 55.8997 161.505 56.8092 160.398 57.4656C159.311 58.1219 158.073 58.4501 156.685 58.4501ZM152.551 49.4489H160.455C160.38 48.4925 159.986 47.7049 159.273 47.0861C158.579 46.4485 157.642 46.1297 156.46 46.1297C155.485 46.1297 154.641 46.4297 153.929 47.0298C153.235 47.6299 152.776 48.4363 152.551 49.4489ZM165.578 44.217H168.053V46.1297H168.166C168.56 45.4546 169.16 44.892 169.966 44.442C170.791 43.9919 171.644 43.7669 172.526 43.7669C174.213 43.7669 175.507 44.2545 176.407 45.2296C177.326 46.186 177.786 47.5549 177.786 49.3364V58H175.198V49.5051C175.142 47.2549 174.007 46.1297 171.794 46.1297C170.763 46.1297 169.9 46.5516 169.206 47.3955C168.513 48.2206 168.166 49.2145 168.166 50.3771V58H165.578V44.217ZM187.285 40.3352V58H184.697V40.3352H179.072V37.8599H192.911V40.3352H187.285ZM199.098 58.4501C197.073 58.4501 195.404 57.7562 194.091 56.3685C192.779 54.9809 192.122 53.2275 192.122 51.1085C192.122 49.0082 192.76 47.2642 194.035 45.8766C195.31 44.4701 196.942 43.7669 198.929 43.7669C200.973 43.7669 202.596 44.4326 203.796 45.764C205.015 47.0767 205.624 48.9238 205.624 51.3054L205.596 51.5867H194.766C194.804 52.9368 195.254 54.0245 196.117 54.8496C196.979 55.6747 198.011 56.0873 199.211 56.0873C200.861 56.0873 202.155 55.2621 203.093 53.6119L205.399 54.7371C204.78 55.8997 203.918 56.8092 202.811 57.4656C201.724 58.1219 200.486 58.4501 199.098 58.4501ZM194.963 49.4489H202.867C202.792 48.4925 202.399 47.7049 201.686 47.0861C200.992 46.4485 200.055 46.1297 198.873 46.1297C197.898 46.1297 197.054 46.4297 196.342 47.0298C195.648 47.6299 195.188 48.4363 194.963 49.4489ZM214.429 58.4501C212.385 58.4501 210.688 57.7562 209.337 56.3685C208.006 54.9434 207.34 53.19 207.34 51.1085C207.34 48.9895 208.006 47.2361 209.337 45.8484C210.688 44.4607 212.385 43.7669 214.429 43.7669C215.835 43.7669 217.063 44.1232 218.114 44.8358C219.164 45.5296 219.951 46.4954 220.476 47.733L218.114 48.7175C217.382 46.9923 216.098 46.1297 214.26 46.1297C213.079 46.1297 212.057 46.6079 211.194 47.5643C210.35 48.5206 209.928 49.702 209.928 51.1085C209.928 52.5149 210.35 53.6963 211.194 54.6527C212.057 55.6091 213.079 56.0873 214.26 56.0873C216.154 56.0873 217.485 55.2246 218.254 53.4994L220.561 54.4839C220.055 55.7216 219.258 56.6967 218.17 57.4093C217.101 58.1031 215.854 58.4501 214.429 58.4501ZM222.824 37.8599H225.412V44.217L225.299 46.1297H225.412C225.806 45.4546 226.406 44.892 227.212 44.442C228.037 43.9919 228.89 43.7669 229.772 43.7669C231.46 43.7669 232.753 44.2545 233.654 45.2296C234.572 46.186 235.032 47.5549 235.032 49.3364V58H232.444V49.8427C232.444 47.3674 231.347 46.1297 229.153 46.1297C228.103 46.1297 227.212 46.5704 226.481 47.4518C225.768 48.3144 225.412 49.327 225.412 50.4896V58H222.824V37.8599ZM240.657 58H238.07V44.217H240.545V46.1297H240.657C241.051 45.4546 241.651 44.892 242.458 44.442C243.283 43.9919 244.098 43.7669 244.905 43.7669C245.917 43.7669 246.808 44.0013 247.577 44.4701C248.346 44.9389 248.908 45.5859 249.265 46.411C250.409 44.6483 251.993 43.7669 254.019 43.7669C255.612 43.7669 256.841 44.2545 257.703 45.2296C258.566 46.2047 258.997 47.5924 258.997 49.3926V58H256.409V49.7864C256.409 48.4925 256.175 47.5643 255.706 47.0017C255.237 46.4204 254.45 46.1297 253.343 46.1297C252.35 46.1297 251.515 46.5516 250.84 47.3955C250.165 48.2394 249.827 49.2332 249.827 50.3771V58H247.24V49.7864C247.24 48.4925 247.005 47.5643 246.536 47.0017C246.068 46.4204 245.28 46.1297 244.174 46.1297C243.18 46.1297 242.345 46.5516 241.67 47.3955C240.995 48.2394 240.657 49.2332 240.657 50.3771V58ZM263.77 53.7807C263.77 54.4558 264.051 55.0184 264.614 55.4684C265.195 55.9185 265.87 56.1435 266.639 56.1435C267.727 56.1435 268.693 55.7403 269.537 54.934C270.399 54.1276 270.83 53.1806 270.83 52.093C270.024 51.4554 268.899 51.1366 267.455 51.1366C266.405 51.1366 265.524 51.3898 264.811 51.8961C264.117 52.4024 263.77 53.0306 263.77 53.7807ZM267.117 43.7669C269.03 43.7669 270.54 44.2826 271.646 45.314C272.753 46.3266 273.306 47.7237 273.306 49.5051V58H270.83V56.0873H270.718C269.649 57.6625 268.224 58.4501 266.442 58.4501C264.923 58.4501 263.648 58 262.617 57.0999C261.604 56.1998 261.098 55.0746 261.098 53.7244C261.098 52.2993 261.632 51.1647 262.701 50.3209C263.789 49.477 265.233 49.0551 267.033 49.0551C268.571 49.0551 269.837 49.3364 270.83 49.8989V49.3082C270.83 48.4081 270.474 47.6487 269.762 47.0298C269.049 46.3922 268.215 46.0735 267.258 46.0735C265.814 46.0735 264.67 46.6829 263.826 47.9018L261.548 46.4673C262.804 44.667 264.661 43.7669 267.117 43.7669ZM288.348 58H285.226L280.922 51.5023L278.812 53.5838V58H276.225V37.8599H278.812V50.2646L284.776 44.217H288.095V44.3295L282.722 49.6739L288.348 57.8875V58ZM295.598 58.4501C293.573 58.4501 291.904 57.7562 290.591 56.3685C289.279 54.9809 288.622 53.2275 288.622 51.1085C288.622 49.0082 289.26 47.2642 290.535 45.8766C291.81 44.4701 293.442 43.7669 295.429 43.7669C297.473 43.7669 299.096 44.4326 300.296 45.764C301.515 47.0767 302.124 48.9238 302.124 51.3054L302.096 51.5867H291.266C291.304 52.9368 291.754 54.0245 292.617 54.8496C293.479 55.6747 294.511 56.0873 295.711 56.0873C297.361 56.0873 298.655 55.2621 299.592 53.6119L301.899 54.7371C301.28 55.8997 300.418 56.8092 299.311 57.4656C298.224 58.1219 296.986 58.4501 295.598 58.4501ZM291.463 49.4489H299.367C299.292 48.4925 298.899 47.7049 298.186 47.0861C297.492 46.4485 296.555 46.1297 295.373 46.1297C294.398 46.1297 293.554 46.4297 292.842 47.0298C292.148 47.6299 291.688 48.4363 291.463 49.4489ZM307.078 58H304.491V44.217H306.966V46.4673H307.078C307.341 45.7359 307.875 45.1171 308.682 44.6108C309.507 44.0857 310.313 43.8232 311.101 43.8232C311.851 43.8232 312.488 43.9357 313.014 44.1607L312.226 46.6642C311.907 46.5329 311.401 46.4673 310.707 46.4673C309.732 46.4673 308.879 46.8611 308.147 47.6487C307.435 48.4363 307.078 49.3551 307.078 50.4053V58ZM324.708 54.1745C324.708 55.3747 324.183 56.3873 323.133 57.2124C322.083 58.0375 320.761 58.4501 319.167 58.4501C317.779 58.4501 316.56 58.0938 315.51 57.3812C314.46 56.6498 313.71 55.6935 313.26 54.512L315.566 53.5275C315.904 54.3527 316.391 54.9996 317.029 55.4684C317.685 55.9185 318.398 56.1435 319.167 56.1435C319.992 56.1435 320.676 55.9654 321.22 55.6091C321.783 55.2528 322.064 54.8308 322.064 54.3433C322.064 53.4619 321.389 52.815 320.039 52.4024L317.676 51.8117C314.994 51.1366 313.654 49.8427 313.654 47.9299C313.654 46.6735 314.16 45.6703 315.172 44.9202C316.204 44.1513 317.517 43.7669 319.11 43.7669C320.329 43.7669 321.426 44.0576 322.402 44.6389C323.395 45.2202 324.089 45.9984 324.483 46.9736L322.176 47.9299C321.914 47.3486 321.483 46.8986 320.883 46.5798C320.301 46.2422 319.645 46.0735 318.914 46.0735C318.238 46.0735 317.629 46.2422 317.085 46.5798C316.56 46.9173 316.298 47.3299 316.298 47.8174C316.298 48.605 317.038 49.1676 318.52 49.5051L320.601 50.0396C323.339 50.7147 324.708 52.093 324.708 54.1745Z" fill="#545454"/>
<path d="M85.4091 84.3193V74.2493H89.0518C89.8488 74.2493 90.5332 74.5118 91.1052 75.0369C91.6771 75.5526 91.9631 76.2042 91.9631 76.9918C91.9631 77.9857 91.5083 78.6842 90.5989 79.0874V79.1437C91.1145 79.3124 91.5271 79.6078 91.8365 80.0297C92.1459 80.4423 92.3006 80.9158 92.3006 81.4502C92.3006 82.2753 92.0006 82.9598 91.4005 83.5036C90.8192 84.0474 90.1019 84.3193 89.2487 84.3193H85.4091ZM86.703 75.4869V78.567H89.0518C89.5112 78.567 89.8956 78.4123 90.2051 78.1029C90.5145 77.7841 90.6692 77.4231 90.6692 77.0199C90.6692 76.6261 90.5192 76.2699 90.2191 75.9511C89.9191 75.6416 89.5487 75.4869 89.108 75.4869H86.703ZM86.703 79.7766V83.0817H89.3049C89.7737 83.0817 90.1722 82.9176 90.5004 82.5894C90.8192 82.2613 90.9786 81.8721 90.9786 81.4221C90.9786 80.9814 90.8145 80.597 90.4863 80.2688C90.1582 79.9406 89.7456 79.7766 89.2487 79.7766H86.703ZM94.4771 82.2097C94.4771 82.5472 94.6177 82.8285 94.899 83.0535C95.1897 83.2786 95.5272 83.3911 95.9117 83.3911C96.4555 83.3911 96.9383 83.1895 97.3603 82.7863C97.7916 82.3831 98.0072 81.9096 98.0072 81.3658C97.6041 81.047 97.0415 80.8876 96.3195 80.8876C95.7945 80.8876 95.3538 81.0142 94.9975 81.2674C94.6506 81.5205 94.4771 81.8346 94.4771 82.2097ZM96.1507 77.2028C97.1071 77.2028 97.8619 77.4606 98.4151 77.9763C98.9683 78.4826 99.2449 79.1812 99.2449 80.0719V84.3193H98.0072V83.363H97.951C97.4165 84.1506 96.7039 84.5444 95.8132 84.5444C95.0537 84.5444 94.4161 84.3193 93.9005 83.8693C93.3941 83.4192 93.141 82.8566 93.141 82.1816C93.141 81.469 93.4082 80.9017 93.9426 80.4798C94.4865 80.0578 95.2084 79.8469 96.1086 79.8469C96.8774 79.8469 97.5103 79.9875 98.0072 80.2688V79.9735C98.0072 79.5234 97.8291 79.1437 97.4728 78.8342C97.1165 78.5155 96.6993 78.3561 96.2211 78.3561C95.4991 78.3561 94.9272 78.6608 94.5052 79.2702L93.366 78.553C93.9942 77.6528 94.9225 77.2028 96.1507 77.2028ZM101.998 84.3193H100.704V77.4278H101.942V78.3842H101.998C102.195 78.0466 102.495 77.7654 102.898 77.5403C103.311 77.3153 103.719 77.2028 104.122 77.2028C104.628 77.2028 105.074 77.32 105.458 77.5544C105.842 77.7888 106.124 78.1123 106.302 78.5248C106.874 77.6435 107.666 77.2028 108.679 77.2028C109.476 77.2028 110.09 77.4466 110.521 77.9341C110.952 78.4217 111.168 79.1155 111.168 80.0157V84.3193H109.874V80.2126C109.874 79.5656 109.757 79.1015 109.523 78.8202C109.288 78.5295 108.894 78.3842 108.341 78.3842C107.844 78.3842 107.427 78.5952 107.089 79.0171C106.752 79.439 106.583 79.936 106.583 80.5079V84.3193H105.289V80.2126C105.289 79.5656 105.172 79.1015 104.938 78.8202C104.703 78.5295 104.309 78.3842 103.756 78.3842C103.259 78.3842 102.842 78.5952 102.505 79.0171C102.167 79.439 101.998 79.936 101.998 80.5079V84.3193ZM115.775 84.5444C114.762 84.5444 113.928 84.1974 113.272 83.5036C112.615 82.8098 112.287 81.9331 112.287 80.8736C112.287 79.8234 112.606 78.9515 113.244 78.2576C113.881 77.5544 114.697 77.2028 115.691 77.2028C116.713 77.2028 117.524 77.5356 118.124 78.2014C118.733 78.8577 119.038 79.7812 119.038 80.972L119.024 81.1127H113.609C113.628 81.7878 113.853 82.3316 114.284 82.7441C114.716 83.1567 115.231 83.363 115.831 83.363C116.656 83.363 117.303 82.9504 117.772 82.1253L118.926 82.6879C118.616 83.2692 118.185 83.7239 117.632 84.0521C117.088 84.3803 116.469 84.5444 115.775 84.5444ZM113.708 80.0438H117.66C117.622 79.5656 117.425 79.1718 117.069 78.8624C116.722 78.5436 116.253 78.3842 115.663 78.3842C115.175 78.3842 114.753 78.5342 114.397 78.8342C114.05 79.1343 113.82 79.5375 113.708 80.0438ZM120.221 77.4278H121.459V78.3842H121.515C121.712 78.0466 122.012 77.7654 122.415 77.5403C122.828 77.3153 123.255 77.2028 123.695 77.2028C124.539 77.2028 125.186 77.4466 125.636 77.9341C126.095 78.4123 126.325 79.0968 126.325 79.9875V84.3193H125.031V80.0719C125.003 78.9468 124.436 78.3842 123.33 78.3842C122.814 78.3842 122.383 78.5952 122.036 79.0171C121.689 79.4296 121.515 79.9266 121.515 80.5079V84.3193H120.221V77.4278ZM130.938 83.363C131.576 83.363 132.096 83.1332 132.499 82.6738C132.921 82.2144 133.132 81.6143 133.132 80.8736C133.132 80.1516 132.921 79.5562 132.499 79.0874C132.087 78.6186 131.566 78.3842 130.938 78.3842C130.319 78.3842 129.799 78.6186 129.377 79.0874C128.955 79.5562 128.744 80.1516 128.744 80.8736C128.744 81.6049 128.955 82.2003 129.377 82.6597C129.799 83.1286 130.319 83.363 130.938 83.363ZM130.727 84.5444C129.827 84.5444 129.054 84.1881 128.407 83.4755C127.769 82.7535 127.45 81.8862 127.45 80.8736C127.45 79.8609 127.769 78.9936 128.407 78.2717C129.054 77.5591 129.827 77.2028 130.727 77.2028C131.234 77.2028 131.693 77.3106 132.106 77.5263C132.527 77.7419 132.851 78.0279 133.076 78.3842H133.132L133.076 77.4278V74.2493H134.37V84.3193H133.132V83.363H133.076C132.851 83.7193 132.527 84.0052 132.106 84.2209C131.693 84.4365 131.234 84.5444 130.727 84.5444ZM136.821 82.2097C136.821 82.5472 136.962 82.8285 137.243 83.0535C137.534 83.2786 137.871 83.3911 138.256 83.3911C138.8 83.3911 139.282 83.1895 139.704 82.7863C140.136 82.3831 140.351 81.9096 140.351 81.3658C139.948 81.047 139.386 80.8876 138.664 80.8876C138.139 80.8876 137.698 81.0142 137.342 81.2674C136.995 81.5205 136.821 81.8346 136.821 82.2097ZM138.495 77.2028C139.451 77.2028 140.206 77.4606 140.759 77.9763C141.312 78.4826 141.589 79.1812 141.589 80.0719V84.3193H140.351V83.363H140.295C139.761 84.1506 139.048 84.5444 138.157 84.5444C137.398 84.5444 136.76 84.3193 136.245 83.8693C135.738 83.4192 135.485 82.8566 135.485 82.1816C135.485 81.469 135.752 80.9017 136.287 80.4798C136.831 80.0578 137.552 79.8469 138.453 79.8469C139.221 79.8469 139.854 79.9875 140.351 80.2688V79.9735C140.351 79.5234 140.173 79.1437 139.817 78.8342C139.461 78.5155 139.043 78.3561 138.565 78.3561C137.843 78.3561 137.271 78.6608 136.849 79.2702L135.71 78.553C136.338 77.6528 137.267 77.2028 138.495 77.2028Z" fill="#545454"/>
</svg>
